<?xml version="1.0" standalone="no"?><!DOCTYPE svg PUBLIC "-//W3C//DTD SVG 1.1//EN" "http://www.w3.org/Graphics/SVG/1.1/DTD/svg11.dtd"><svg t="1662344644362" class="icon" viewBox="0 0 1024 1024" version="1.1" xmlns="http://www.w3.org/2000/svg" p-id="8980" xmlns:xlink="http://www.w3.org/1999/xlink" width="200" height="200"><path d="M883.170163 481.367521H110.993007" fill="#1296db" p-id="8981"></path><path d="M110.993007 357.246309h772.177156v19.095571H110.993007z" fill="#1296db" p-id="8982"></path><path d="M110.993007 376.34188h772.177156v19.095571H110.993007z" fill="#1296db" p-id="8983"></path><path d="M110.993007 395.437451h772.177156v19.095572H110.993007z" fill="#1296db" p-id="8984"></path><path d="M110.993007 414.533023h772.177156v19.095571H110.993007z" fill="#1296db" p-id="8985"></path><path d="M110.993007 433.628594h772.177156v19.095571H110.993007z" fill="#1296db" p-id="8986"></path><path d="M110.993007 452.724165h772.177156v19.095571H110.993007z" fill="#1296db" p-id="8987"></path><path d="M110.993007 471.819736h772.177156v19.095571H110.993007z" fill="#1296db" p-id="8988"></path><path d="M110.993007 490.915307h772.177156v19.095571H110.993007z" fill="#1296db" p-id="8989"></path><path d="M110.993007 510.010878h772.177156v19.095571H110.993007z" fill="#1296db" p-id="8990"></path><path d="M110.993007 529.106449h772.177156v19.095571H110.993007z" fill="#1296db" p-id="8991"></path><path d="M110.993007 548.20202h772.177156v19.095571H110.993007zM110.993007 586.393162h772.177156v19.095571H110.993007z" fill="#1296db" p-id="8992"></path><path d="M110.993007 567.297591h772.177156v19.095571H110.993007z" fill="#1296db" p-id="8993"></path><path d="M200.503497 0v1024" fill="#1296db" p-id="8994"></path><path d="M76.382284 0h19.095571v1024H76.382284z" fill="#1296db" p-id="8995"></path><path d="M95.477855 0h19.095572v1024H95.477855z" fill="#1296db" p-id="8996"></path><path d="M114.573427 0h19.095571v1024H114.573427z" fill="#1296db" p-id="8997"></path><path d="M133.668998 0h19.095571v1024h-19.095571z" fill="#1296db" p-id="8998"></path><path d="M152.764569 0H171.86014v1024h-19.095571z" fill="#1296db" p-id="8999"></path><path d="M171.86014 0h19.095571v1024H171.86014z" fill="#1296db" p-id="9000"></path><path d="M190.955711 0h19.095571v1024h-19.095571z" fill="#1296db" p-id="9001"></path><path d="M210.051282 0h19.095571v1024h-19.095571z" fill="#1296db" p-id="9002"></path><path d="M229.146853 0h19.095571v1024h-19.095571z" fill="#1296db" p-id="9003"></path><path d="M248.242424 0H267.337995v1024h-19.095571z" fill="#1296db" p-id="9004"></path><path d="M267.337995 0h19.095571v1024H267.337995zM305.529138 0h19.095571v1024h-19.095571z" fill="#1296db" p-id="9005"></path><path d="M286.433566 0h19.095572v1024h-19.095572z" fill="#1296db" p-id="9006"></path><path d="M823.496503 0v1024" fill="#1296db" p-id="9007"></path><path d="M699.375291 0h19.095571v1024h-19.095571z" fill="#1296db" p-id="9008"></path><path d="M718.470862 0h19.095572v1024h-19.095572z" fill="#1296db" p-id="9009"></path><path d="M737.566434 0h19.095571v1024h-19.095571z" fill="#1296db" p-id="9010"></path><path d="M756.662005 0h19.095571v1024H756.662005z" fill="#1296db" p-id="9011"></path><path d="M775.757576 0h19.095571v1024h-19.095571z" fill="#1296db" p-id="9012"></path><path d="M794.853147 0h19.095571v1024h-19.095571z" fill="#1296db" p-id="9013"></path><path d="M813.948718 0h19.095571v1024h-19.095571z" fill="#1296db" p-id="9014"></path><path d="M833.044289 0h19.095571v1024h-19.095571z" fill="#1296db" p-id="9015"></path><path d="M852.13986 0h19.095571v1024H852.13986z" fill="#1296db" p-id="9016"></path><path d="M871.235431 0h19.095571v1024h-19.095571z" fill="#1296db" p-id="9017"></path><path d="M890.331002 0h19.095571v1024h-19.095571zM928.522145 0h19.095571v1024h-19.095571z" fill="#1296db" p-id="9018"></path><path d="M909.426573 0h19.095572v1024h-19.095572z" fill="#1296db" p-id="9019"></path></svg>